<mxfile host="Electron" modified="2024-01-08T17:13:01.230Z" agent="Mozilla/5.0 (Windows NT 10.0; Win64; x64) AppleWebKit/537.36 (KHTML, like Gecko) draw.io/22.1.16 Chrome/120.0.6099.109 Electron/28.1.0 Safari/537.36" etag="9sbTils0aE_32JcdMpIT" version="22.1.16" type="device">
  <diagram id="D8fkURHyANMpih5rnkmA" name="Страница — 1">
    <mxGraphModel dx="724" dy="838" grid="1" gridSize="10" guides="0" tooltips="1" connect="1" arrows="1" fold="1" page="1" pageScale="1" pageWidth="827" pageHeight="1169" math="0" shadow="0">
      <root>
        <mxCell id="0" />
        <mxCell id="1" parent="0" />
        <mxCell id="11rlWMmekfV-KqHWhoUA-5" value="" style="edgeStyle=orthogonalEdgeStyle;rounded=0;orthogonalLoop=1;jettySize=auto;html=1;strokeColor=#0B4D6A;" parent="1" source="11rlWMmekfV-KqHWhoUA-1" edge="1">
          <mxGeometry relative="1" as="geometry">
            <mxPoint x="420" y="140" as="targetPoint" />
          </mxGeometry>
        </mxCell>
        <mxCell id="11rlWMmekfV-KqHWhoUA-1" value="&lt;font style=&quot;font-size: 24px;&quot;&gt;Начало&lt;/font&gt;" style="rounded=1;whiteSpace=wrap;html=1;fillColor=#e1d5e7;labelBackgroundColor=none;strokeColor=#9673a6;" parent="1" vertex="1">
          <mxGeometry x="190" y="40" width="460" height="60" as="geometry" />
        </mxCell>
        <mxCell id="iXek-vWVoZRyLNUcSNv--8" value="" style="edgeStyle=orthogonalEdgeStyle;rounded=0;orthogonalLoop=1;jettySize=auto;html=1;entryX=0.5;entryY=0;entryDx=0;entryDy=0;" edge="1" parent="1" source="iXek-vWVoZRyLNUcSNv--2" target="iXek-vWVoZRyLNUcSNv--3">
          <mxGeometry relative="1" as="geometry" />
        </mxCell>
        <mxCell id="iXek-vWVoZRyLNUcSNv--2" value="&lt;p class=&quot;MsoNormal&quot; style=&quot;font-size: 18px;&quot;&gt;Встаем одной ногой на скейт&lt;/p&gt;" style="rounded=0;whiteSpace=wrap;html=1;fillColor=#dae8fc;strokeColor=#6c8ebf;fontSize=18;" vertex="1" parent="1">
          <mxGeometry x="270" y="120" width="300" height="60" as="geometry" />
        </mxCell>
        <mxCell id="iXek-vWVoZRyLNUcSNv--9" value="" style="edgeStyle=orthogonalEdgeStyle;rounded=0;orthogonalLoop=1;jettySize=auto;html=1;" edge="1" parent="1" source="iXek-vWVoZRyLNUcSNv--3" target="iXek-vWVoZRyLNUcSNv--4">
          <mxGeometry relative="1" as="geometry" />
        </mxCell>
        <mxCell id="iXek-vWVoZRyLNUcSNv--3" value="&lt;p class=&quot;MsoNormal&quot; style=&quot;font-size: 18px;&quot;&gt;Отталкиваемся второй ногой&lt;/p&gt;" style="rounded=0;whiteSpace=wrap;html=1;fillColor=#dae8fc;strokeColor=#6c8ebf;fontSize=18;" vertex="1" parent="1">
          <mxGeometry x="270" y="200" width="300" height="60" as="geometry" />
        </mxCell>
        <mxCell id="iXek-vWVoZRyLNUcSNv--6" value="" style="edgeStyle=orthogonalEdgeStyle;rounded=0;orthogonalLoop=1;jettySize=auto;html=1;" edge="1" parent="1" source="iXek-vWVoZRyLNUcSNv--4">
          <mxGeometry relative="1" as="geometry">
            <mxPoint x="420" y="440" as="targetPoint" />
          </mxGeometry>
        </mxCell>
        <mxCell id="iXek-vWVoZRyLNUcSNv--12" value="ДА" style="edgeLabel;html=1;align=center;verticalAlign=middle;resizable=0;points=[];fontSize=18;" vertex="1" connectable="0" parent="iXek-vWVoZRyLNUcSNv--6">
          <mxGeometry x="-0.1288" y="-1" relative="1" as="geometry">
            <mxPoint as="offset" />
          </mxGeometry>
        </mxCell>
        <mxCell id="iXek-vWVoZRyLNUcSNv--35" style="edgeStyle=orthogonalEdgeStyle;rounded=0;orthogonalLoop=1;jettySize=auto;html=1;entryX=0.5;entryY=1;entryDx=0;entryDy=0;" edge="1" parent="1" source="iXek-vWVoZRyLNUcSNv--4" target="iXek-vWVoZRyLNUcSNv--33">
          <mxGeometry relative="1" as="geometry" />
        </mxCell>
        <mxCell id="iXek-vWVoZRyLNUcSNv--36" value="НЕТ" style="edgeLabel;html=1;align=center;verticalAlign=middle;resizable=0;points=[];fontSize=18;" vertex="1" connectable="0" parent="iXek-vWVoZRyLNUcSNv--35">
          <mxGeometry x="-0.373" y="4" relative="1" as="geometry">
            <mxPoint as="offset" />
          </mxGeometry>
        </mxCell>
        <mxCell id="iXek-vWVoZRyLNUcSNv--4" value="Устоял?" style="rhombus;whiteSpace=wrap;html=1;fillColor=#fff2cc;strokeColor=#d6b656;fontSize=18;" vertex="1" parent="1">
          <mxGeometry x="260" y="280" width="320" height="110" as="geometry" />
        </mxCell>
        <mxCell id="iXek-vWVoZRyLNUcSNv--18" value="" style="edgeStyle=orthogonalEdgeStyle;rounded=0;orthogonalLoop=1;jettySize=auto;html=1;" edge="1" parent="1" source="iXek-vWVoZRyLNUcSNv--13" target="iXek-vWVoZRyLNUcSNv--14">
          <mxGeometry relative="1" as="geometry" />
        </mxCell>
        <mxCell id="iXek-vWVoZRyLNUcSNv--13" value="Движение на скейте" style="shape=trapezoid;perimeter=trapezoidPerimeter;whiteSpace=wrap;html=1;fixedSize=1;fillColor=#d5e8d4;strokeColor=#82b366;fontSize=18;" vertex="1" parent="1">
          <mxGeometry x="250" y="440" width="340" height="60" as="geometry" />
        </mxCell>
        <mxCell id="iXek-vWVoZRyLNUcSNv--19" value="" style="edgeStyle=orthogonalEdgeStyle;rounded=0;orthogonalLoop=1;jettySize=auto;html=1;" edge="1" parent="1" source="iXek-vWVoZRyLNUcSNv--14" target="iXek-vWVoZRyLNUcSNv--15">
          <mxGeometry relative="1" as="geometry" />
        </mxCell>
        <mxCell id="iXek-vWVoZRyLNUcSNv--14" value="Стоим двумя ногами на скейте" style="rounded=0;whiteSpace=wrap;html=1;fillColor=#dae8fc;strokeColor=#6c8ebf;fontSize=18;" vertex="1" parent="1">
          <mxGeometry x="270" y="520" width="300" height="60" as="geometry" />
        </mxCell>
        <mxCell id="iXek-vWVoZRyLNUcSNv--20" value="" style="edgeStyle=orthogonalEdgeStyle;rounded=0;orthogonalLoop=1;jettySize=auto;html=1;" edge="1" parent="1" source="iXek-vWVoZRyLNUcSNv--15" target="iXek-vWVoZRyLNUcSNv--17">
          <mxGeometry relative="1" as="geometry" />
        </mxCell>
        <mxCell id="iXek-vWVoZRyLNUcSNv--15" value="Отталкиваемся одной ногой" style="rounded=0;whiteSpace=wrap;html=1;fillColor=#dae8fc;strokeColor=#6c8ebf;fontSize=18;" vertex="1" parent="1">
          <mxGeometry x="270" y="600" width="300" height="60" as="geometry" />
        </mxCell>
        <mxCell id="iXek-vWVoZRyLNUcSNv--30" style="edgeStyle=orthogonalEdgeStyle;rounded=0;orthogonalLoop=1;jettySize=auto;html=1;entryX=0.5;entryY=0;entryDx=0;entryDy=0;" edge="1" parent="1" source="iXek-vWVoZRyLNUcSNv--17" target="iXek-vWVoZRyLNUcSNv--21">
          <mxGeometry relative="1" as="geometry" />
        </mxCell>
        <mxCell id="iXek-vWVoZRyLNUcSNv--17" value="Движение на скейте.&lt;br&gt;При желании остановиться" style="shape=trapezoid;perimeter=trapezoidPerimeter;whiteSpace=wrap;html=1;fixedSize=1;flipH=1;flipV=1;fillColor=#d5e8d4;strokeColor=#82b366;fontSize=18;" vertex="1" parent="1">
          <mxGeometry x="250" y="680" width="340" height="60" as="geometry" />
        </mxCell>
        <mxCell id="iXek-vWVoZRyLNUcSNv--23" value="" style="edgeStyle=orthogonalEdgeStyle;rounded=0;orthogonalLoop=1;jettySize=auto;html=1;" edge="1" parent="1" source="iXek-vWVoZRyLNUcSNv--21" target="iXek-vWVoZRyLNUcSNv--22">
          <mxGeometry relative="1" as="geometry" />
        </mxCell>
        <mxCell id="iXek-vWVoZRyLNUcSNv--21" value="Переводим центр масс на заднюю ногу" style="rounded=0;whiteSpace=wrap;html=1;fillColor=#dae8fc;strokeColor=#6c8ebf;fontSize=18;" vertex="1" parent="1">
          <mxGeometry x="270" y="760" width="300" height="60" as="geometry" />
        </mxCell>
        <mxCell id="iXek-vWVoZRyLNUcSNv--25" value="" style="edgeStyle=orthogonalEdgeStyle;rounded=0;orthogonalLoop=1;jettySize=auto;html=1;" edge="1" parent="1" source="iXek-vWVoZRyLNUcSNv--22" target="iXek-vWVoZRyLNUcSNv--24">
          <mxGeometry relative="1" as="geometry" />
        </mxCell>
        <mxCell id="iXek-vWVoZRyLNUcSNv--22" value="Снимаем со скейта переднюю ногу" style="whiteSpace=wrap;html=1;rounded=0;fillColor=#dae8fc;strokeColor=#6c8ebf;fontSize=18;" vertex="1" parent="1">
          <mxGeometry x="270" y="840" width="300" height="60" as="geometry" />
        </mxCell>
        <mxCell id="iXek-vWVoZRyLNUcSNv--27" value="" style="edgeStyle=orthogonalEdgeStyle;rounded=0;orthogonalLoop=1;jettySize=auto;html=1;" edge="1" parent="1" source="iXek-vWVoZRyLNUcSNv--24" target="iXek-vWVoZRyLNUcSNv--26">
          <mxGeometry relative="1" as="geometry" />
        </mxCell>
        <mxCell id="iXek-vWVoZRyLNUcSNv--24" value="Ставим ногу на землю" style="whiteSpace=wrap;html=1;rounded=0;fillColor=#dae8fc;strokeColor=#6c8ebf;fontSize=18;" vertex="1" parent="1">
          <mxGeometry x="270" y="920" width="300" height="60" as="geometry" />
        </mxCell>
        <mxCell id="iXek-vWVoZRyLNUcSNv--32" value="" style="edgeStyle=orthogonalEdgeStyle;rounded=0;orthogonalLoop=1;jettySize=auto;html=1;" edge="1" parent="1" source="iXek-vWVoZRyLNUcSNv--26" target="iXek-vWVoZRyLNUcSNv--31">
          <mxGeometry relative="1" as="geometry" />
        </mxCell>
        <mxCell id="iXek-vWVoZRyLNUcSNv--26" value="Останавливаемся" style="whiteSpace=wrap;html=1;rounded=0;fillColor=#dae8fc;strokeColor=#6c8ebf;fontSize=18;" vertex="1" parent="1">
          <mxGeometry x="270" y="1000" width="300" height="60" as="geometry" />
        </mxCell>
        <mxCell id="iXek-vWVoZRyLNUcSNv--31" value="Конец" style="rounded=1;whiteSpace=wrap;html=1;fillColor=#e1d5e7;strokeColor=#9673a6;fontSize=36;" vertex="1" parent="1">
          <mxGeometry x="230" y="1080" width="380" height="60" as="geometry" />
        </mxCell>
        <mxCell id="iXek-vWVoZRyLNUcSNv--34" style="edgeStyle=orthogonalEdgeStyle;rounded=0;orthogonalLoop=1;jettySize=auto;html=1;entryX=1;entryY=0.5;entryDx=0;entryDy=0;" edge="1" parent="1" source="iXek-vWVoZRyLNUcSNv--33" target="iXek-vWVoZRyLNUcSNv--2">
          <mxGeometry relative="1" as="geometry">
            <Array as="points">
              <mxPoint x="690" y="150" />
            </Array>
          </mxGeometry>
        </mxCell>
        <mxCell id="iXek-vWVoZRyLNUcSNv--33" value="Спрыгиваем со скейта" style="rounded=0;whiteSpace=wrap;html=1;fillColor=#dae8fc;strokeColor=#6c8ebf;fontSize=18;" vertex="1" parent="1">
          <mxGeometry x="600" y="200" width="180" height="60" as="geometry" />
        </mxCell>
      </root>
    </mxGraphModel>
  </diagram>
</mxfile>
